<svg width="106" height="60" viewBox="0 0 106 60" fill="none" xmlns="http://www.w3.org/2000/svg">
<path fill-rule="evenodd" clip-rule="evenodd" d="M50.1136 6.93452H49.977C49.7671 6.92181 49.5571 6.91672 49.3471 6.91163H49.3471H49.3269H48.8918C48.4946 6.91163 48.0898 6.92181 47.6876 6.94215C47.6573 6.93994 47.6269 6.93994 47.5966 6.94215C43.9522 7.14863 40.3817 8.05951 37.0805 9.62492L36.6479 9.83344V31.9746L37.6598 31.6313C38.5477 31.3261 39.4938 31.0515 40.4728 30.7972C43.1193 30.1178 45.8367 29.7567 48.568 29.7216V32.6306C48.2062 32.6332 47.8546 32.6434 47.503 32.6612H47.4195C45.3175 32.7765 43.2317 33.0967 41.1913 33.6173C38.6072 34.2643 36.1143 35.2357 33.7716 36.5086V8.11189C36.2047 6.69275 38.8253 5.62687 41.5556 4.94596C43.9527 4.32705 46.4169 4.00931 48.8918 4H49.3193C49.8303 4.01271 50.3287 4.0356 50.7967 4.0712C52.0297 4.15778 53.2528 4.35263 54.4521 4.65353V7.51685C53.2874 7.24551 52.1032 7.06695 50.9105 6.98284C50.8863 6.98079 50.8621 6.97872 50.8379 6.97666C50.5911 6.95561 50.344 6.93452 50.1136 6.93452ZM55.1528 9.86138C55.7877 9.9097 56.4455 9.93259 57.1108 9.93259C59.7125 9.92307 62.3031 9.59083 64.8239 8.94339C67.4068 8.29396 69.8986 7.32178 72.2411 6.04956V33.9402C69.8067 35.3585 67.1853 36.4243 64.4546 37.1061C62.0571 37.7227 59.5931 38.0395 57.1184 38.0496C55.2433 38.0647 53.3737 37.8443 51.553 37.3935V9.32229C51.983 9.42146 52.4257 9.51301 52.876 9.58929C53.6147 9.7139 54.3939 9.80544 55.1528 9.86138ZM69.3471 10.0775L68.3352 10.4183C67.4042 10.7311 66.4657 11.0108 65.5221 11.26C62.7749 11.966 59.9514 12.3281 57.1158 12.3382C56.4556 12.3382 55.8485 12.3204 55.2616 12.2822L54.4546 12.2288V32.3178V35.0057L55.1477 35.0667C55.7903 35.1227 56.4531 35.1506 57.1209 35.1506C59.3544 35.1412 61.5781 34.8533 63.7412 34.2937C65.5223 33.8469 67.2552 33.2243 68.9145 32.4348L69.3471 32.2263V10.0775Z" fill="#AFB1B8"/>
<path d="M35.7371 46.212C35.5917 46.0611 35.4163 45.9427 35.2224 45.8642C35.0284 45.7858 34.8203 45.7492 34.6114 45.7568C34.3888 45.7539 34.1678 45.7954 33.9613 45.8789C33.7719 45.9543 33.5998 46.0677 33.4553 46.212C33.3125 46.3568 33.2013 46.5301 33.129 46.7206C33.0497 46.9203 33.0101 47.1337 33.0126 47.3487V51.1427C33.0036 51.4101 33.0546 51.676 33.1619 51.9209C33.2514 52.1153 33.3807 52.2886 33.5413 52.4294C33.693 52.5571 33.871 52.6492 34.0625 52.699C34.2469 52.7508 34.4376 52.7774 34.6291 52.7778C34.8404 52.7799 35.0495 52.7348 35.2413 52.6456C35.4309 52.5626 35.6028 52.4434 35.7473 52.2947C35.8881 52.1473 36.0005 51.9748 36.0786 51.7861C36.1597 51.5948 36.201 51.3888 36.2001 51.1809V50.7562H35.2084V51.0944C35.2114 51.2099 35.1916 51.3248 35.1502 51.4326C35.1179 51.5134 35.0688 51.5862 35.006 51.6462C34.9446 51.6959 34.8742 51.733 34.7986 51.7556C34.7316 51.7779 34.6617 51.7899 34.5912 51.7912C34.5026 51.8015 34.413 51.7881 34.3312 51.7524C34.2495 51.7166 34.1786 51.6599 34.1257 51.5877C34.0322 51.4353 33.9864 51.2581 33.9942 51.0792V47.542C33.988 47.3458 34.0297 47.1511 34.1156 46.9749C34.1671 46.8948 34.2399 46.8309 34.3258 46.7904C34.4117 46.75 34.5071 46.7346 34.6013 46.746C34.6868 46.743 34.7717 46.7608 34.8488 46.798C34.9259 46.8352 34.9929 46.8907 35.044 46.9596C35.155 47.1053 35.213 47.2848 35.2084 47.4682V47.7963H36.19V47.4097C36.1919 47.1827 36.1507 46.9575 36.0685 46.746C35.9953 46.5473 35.8825 46.3656 35.7371 46.212Z" fill="#AFB1B8"/>
<path d="M41.6289 46.169C41.3127 45.902 40.9136 45.7545 40.5007 45.752C40.2987 45.7528 40.0984 45.7889 39.9087 45.8588C39.7161 45.9278 39.5384 46.0331 39.3851 46.169C39.2208 46.3167 39.0897 46.4978 39.0005 46.7005C38.9006 46.9322 38.8515 47.1828 38.8563 47.4354V51.0743C38.8495 51.3302 38.8987 51.5846 39.0005 51.8193C39.0903 52.015 39.2215 52.1886 39.3851 52.3279C39.5367 52.4687 39.7147 52.5776 39.9087 52.6483C40.0984 52.7181 40.2987 52.7543 40.5007 52.7551C40.7027 52.7547 40.9031 52.7186 41.0926 52.6483C41.29 52.5766 41.4719 52.4679 41.6289 52.3279C41.7871 52.186 41.9145 52.0129 42.0033 51.8193C42.1051 51.5846 42.1544 51.3302 42.1475 51.0743V47.4354C42.1524 47.1828 42.1032 46.9322 42.0033 46.7005C41.9151 46.5 41.7878 46.3193 41.6289 46.169ZM41.166 51.0743C41.1743 51.1713 41.1609 51.2689 41.1268 51.36C41.0926 51.4511 41.0386 51.5333 40.9687 51.6007C40.8377 51.7105 40.6725 51.7707 40.5019 51.7707C40.3313 51.7707 40.1662 51.7105 40.0352 51.6007C39.9652 51.5333 39.9112 51.4511 39.8771 51.36C39.8429 51.2689 39.8295 51.1713 39.8379 51.0743V47.4354C39.8295 47.3384 39.8429 47.2407 39.8771 47.1496C39.9112 47.0585 39.9652 46.9763 40.0352 46.909C40.1662 46.7991 40.3313 46.739 40.5019 46.739C40.6725 46.739 40.8377 46.7991 40.9687 46.909C41.0386 46.9763 41.0926 47.0585 41.1268 47.1496C41.1609 47.2407 41.1743 47.3384 41.166 47.4354V51.0743Z" fill="#AFB1B8"/>
<path d="M49.3673 52.6993V45.8105H48.4136L47.1614 49.4571H47.1437L45.8813 45.8105H44.9377V52.6993H45.9218V48.5086H45.9395L46.9033 51.4711H47.3941L48.3655 48.5086H48.3832V52.6993H49.3673Z" fill="#AFB1B8"/>
<path d="M54.9581 46.294C54.8065 46.124 54.6153 45.9947 54.4015 45.9177C54.1712 45.8428 53.9302 45.8067 53.6881 45.8109H52.226V52.6996H53.2075V50.0092H53.7134C54.0197 50.0232 54.3244 49.9584 54.5988 49.8211C54.822 49.6971 55.0081 49.5154 55.1377 49.2947C55.2512 49.1114 55.3277 48.9075 55.3628 48.6945C55.4014 48.4353 55.4192 48.1734 55.4159 47.9113C55.4255 47.5805 55.3932 47.2498 55.3198 46.9272C55.2543 46.6888 55.1299 46.471 54.9581 46.294ZM54.4521 48.3945C54.4479 48.5192 54.4168 48.6415 54.361 48.753C54.3049 48.859 54.2162 48.9437 54.1081 48.9946C53.9627 49.0596 53.8041 49.0892 53.6451 49.0811H53.1974V46.739H53.7033C53.8557 46.7316 54.0075 46.7612 54.146 46.8255C54.2475 46.8837 54.3281 46.9727 54.3762 47.0798C54.4299 47.2008 54.4591 47.3313 54.4622 47.4638C54.4622 47.6087 54.4622 47.7613 54.4622 47.9215C54.4622 48.0817 54.4723 48.247 54.4622 48.3945H54.4521Z" fill="#AFB1B8"/>
<path d="M59.6077 45.8105H58.8032L57.2854 52.6993H58.2669L58.5553 51.2193H59.8935L60.1819 52.6993H61.1635L59.6077 45.8105ZM58.702 50.281L59.1852 47.7838H59.2029L59.6836 50.281H58.702Z" fill="#AFB1B8"/>
<path d="M65.9497 49.9606H65.932L64.4496 45.8105H63.506V52.6993H64.4875V48.5569H64.5078L66.0079 52.6993H66.9312V45.8105H65.9497V49.9606Z" fill="#AFB1B8"/>
<path d="M71.9476 45.8105L71.1583 48.5493H71.1381L70.3488 45.8105H69.3091L70.6574 49.7877V52.6993H71.639V49.7877L72.9873 45.8105H71.9476Z" fill="#AFB1B8"/>
<path d="M33 54.6442H33.4731V55.9716H33.7943V54.6442H34.2649V54.3721H33V54.6442Z" fill="#AFB1B8"/>
<path d="M36.9767 54.3721L36.3569 55.9716H36.6984L36.83 55.6079H37.4675L37.6041 55.9716H37.9532L37.3182 54.3721H36.9767ZM36.9261 55.3384L37.1437 54.7459L37.3612 55.3384H36.9261Z" fill="#AFB1B8"/>
<path d="M40.9079 55.3821H41.2773V55.5881C41.1694 55.6746 41.0358 55.722 40.8978 55.7229C40.8333 55.7265 40.7689 55.7145 40.7099 55.688C40.6509 55.6614 40.5991 55.6211 40.5588 55.5703C40.474 55.4485 40.4322 55.3017 40.4399 55.1533C40.4399 54.7973 40.5942 54.6193 40.9003 54.6193C40.9809 54.6112 41.0617 54.6325 41.128 54.6791C41.1944 54.7257 41.2419 54.7947 41.2621 54.8735L41.5783 54.8125C41.51 54.4997 41.2849 54.3421 40.9003 54.3421C40.6947 54.3366 40.4947 54.4103 40.3413 54.5481C40.2607 54.6276 40.1983 54.7239 40.1586 54.8302C40.1188 54.9365 40.1026 55.0502 40.1111 55.1634C40.1017 55.3823 40.1749 55.5966 40.316 55.7636C40.3943 55.8444 40.4892 55.9071 40.594 55.9475C40.6988 55.9879 40.8111 56.0049 40.9231 55.9975C41.1734 56.0045 41.4165 55.9133 41.6011 55.7432V55.1126H40.9079V55.3821Z" fill="#AFB1B8"/>
<path d="M44.9226 54.3721H44.5988V55.9716H45.7194V55.6995H44.9226V54.3721Z" fill="#AFB1B8"/>
<path d="M48.3175 54.3721H47.9937V55.9716H48.3175V54.3721Z" fill="#AFB1B8"/>
<path d="M51.6365 55.4401L50.9813 54.3721H50.6676V55.9716H50.9686V54.9264L51.6112 55.9716H51.9325V54.3721H51.6365V55.4401Z" fill="#AFB1B8"/>
<path d="M54.6368 55.2672H55.4337V54.9951H54.6368V54.6442H55.4944V54.3721H54.313V55.9716H55.5273V55.6995H54.6368V55.2672Z" fill="#AFB1B8"/>
<path d="M61.9122 55.0027H61.2823V54.3721H60.9611V55.9716H61.2823V55.2723H61.9122V55.9716H62.2335V54.3721H61.9122V55.0027Z" fill="#AFB1B8"/>
<path d="M64.9302 55.2672H65.7296V54.9951H64.9302V54.6442H65.7903V54.3721H64.6089V55.9716H65.8206V55.6995H64.9302V55.2672Z" fill="#AFB1B8"/>
<path d="M69.0233 55.2674C69.3015 55.2241 69.4432 55.0766 69.4432 54.8224C69.4513 54.7543 69.441 54.6854 69.4134 54.6227C69.3858 54.5601 69.3419 54.5061 69.2863 54.4663C69.1415 54.3936 68.9799 54.3611 68.8183 54.3723H68.1404V55.9717H68.4617V55.303H68.5249C68.5934 55.2987 68.6619 55.3109 68.7247 55.3386C68.7717 55.3675 68.8108 55.4077 68.8386 55.4555L69.1877 55.9641H69.5722L69.3774 55.6513C69.2913 55.4969 69.1699 55.3653 69.0233 55.2674ZM68.6994 55.0461H68.4617V54.6444H68.7146C68.8248 54.6354 68.9357 54.6484 69.041 54.6825C69.0644 54.7031 69.0828 54.7288 69.095 54.7576C69.1072 54.7865 69.1127 54.8176 69.1113 54.8489C69.1098 54.8802 69.1014 54.9107 69.0866 54.9382C69.0718 54.9658 69.051 54.9896 69.0258 55.008C68.9202 55.0404 68.8096 55.0533 68.6994 55.0461Z" fill="#AFB1B8"/>
<path d="M72.1096 55.2672H72.9064V54.9951H72.1096V54.6442H72.9697V54.3721H71.7858V55.9716H73V55.6995H72.1096V55.2672Z" fill="#AFB1B8"/>
</svg>
